#format: frame checksums
#version: 2
#hash: MD5
#software: Lavf62.3.100
#tb 0: 1/4
#media_type 0: video
#codec_id 0: rawvideo
#dimensions 0: 180x320
#sar 0: 1/1
#stream#, dts,        pts, duration,     size, hash
0,          0,          0,        1,    86400, 03a59e9427b679030415e1f738c5682a
0,          1,          1,        1,    86400, c3f1a0fc10364d7aba64bb6ffcb6e90b
0,          2,          2,        1,    86400, 2d24f41e83a9990ef8462d6ee33bdba5
0,          3,          3,        1,    86400, 06af26437ea6ca4eae0a21e9339cf604
0,          4,          4,        1,    86400, 2d79c2fcd254039fa22660202cd1ec53
0,          5,          5,        1,    86400, 56f2248118b8a4f6050da61402623fca
0,          6,          6,        1,    86400, dc16df18593f375bc41c152b41809967
0,          7,          7,        1,    86400, 6a8cb05e13e0c8c21ed957b36e6d4471
